<?xml version="1.0" encoding="iso-8859-1"?>
<!-- Generator: Adobe Illustrator 19.0.0, SVG Export Plug-In . SVG Version: 6.00 Build 0)  -->
<svg version="1.1" id="Layer_1" xmlns="http://www.w3.org/2000/svg" xmlns:xlink="http://www.w3.org/1999/xlink" x="0px" y="0px"
	 viewBox="0 0 512 512" style="enable-background:new 0 0 512 512;" xml:space="preserve">
<path style="fill:#45C1F1;" d="M256,512C114.844,512,0,397.156,0,256S114.844,0,256,0s256,114.844,256,256S397.156,512,256,512z"/>
<path style="fill:#44A4EC;" d="M256,512c141.156,0,256-114.844,256-256c0-70.563-28.711-134.563-75.063-180.938L75.063,436.938
	C121.422,483.281,185.422,512,256,512z"/>
<path style="fill:#E6EEFF;" d="M482,256c0,5.04-0.17,10.04-0.5,15c-7.41,112.71-97.83,203.11-210.54,210.51
	c-4.94,0.33-9.93,0.49-14.96,0.49c-5.05,0-10.07-0.17-15.04-0.5C128.28,474.07,37.91,383.68,30.5,271c-0.33-4.96-0.5-9.96-0.5-15
	c0-5.04,0.17-10.04,0.5-15c7.41-112.68,97.78-203.07,210.46-210.5c4.97-0.33,9.99-0.5,15.04-0.5c5.03,0,10.02,0.16,14.96,0.49
	c112.71,7.4,203.13,97.8,210.54,210.51C481.83,245.96,482,250.96,482,256z"/>
<path style="fill:#DAE2F2;" d="M415.731,96.269L96.269,415.731C137.192,456.654,193.692,482,256,482c124.617,0,226-101.383,226-226
	C482,193.692,456.654,137.192,415.731,96.269z"/>
<path style="fill:#F23051;" d="M131.563,396.438c-4.125,0-8.219-1.594-11.313-4.688c-5.094-5.094-6.156-13-2.594-19.25l90.5-158.375
	c2.5-4.344,6.844-7.25,11.781-7.906c4.844-0.813,9.875,0.969,13.438,4.531l67.875,67.875c3.531,3.531,5.219,8.5,4.531,13.438
	c-0.656,4.938-3.563,9.281-7.906,11.781l-158.375,90.5C137.031,395.75,134.281,396.438,131.563,396.438z"/>
<path style="fill:#D92C48;" d="M131.563,396.438c2.719,0,5.469-0.688,7.938-2.094l158.375-90.5c4.344-2.5,7.25-6.844,7.906-11.781
	c0.688-4.938-1-9.906-4.531-13.438l-33.938-33.938L120.25,391.75C123.344,394.844,127.438,396.438,131.563,396.438z"/>
<path style="fill:#45C1F1;" d="M372.5,117.656l-158.375,90.5c-0.977,0.563-1.578,1.5-2.398,2.25l89.883,89.875
	c0.734-0.844,1.672-1.438,2.234-2.406l90.5-158.375c3.563-6.25,2.5-14.156-2.594-19.25
	C386.594,115.094,378.688,114.125,372.5,117.656z"/>
<path style="fill:#44A4EC;" d="M301.609,300.281c0.734-0.844,1.672-1.438,2.234-2.406l90.5-158.375
	c3.563-6.25,2.5-14.156-2.594-19.25L256.664,255.344L301.609,300.281z"/>
<path style="fill:#A1A7B3;" d="M270.96,30.49V79c0,8.28-6.72,15-15,15c-8.29,0-15-6.72-15-15V30.5c4.97-0.33,9.99-0.5,15.04-0.5
	C261.03,30,266.02,30.16,270.96,30.49z"/>
<path style="fill:#979CA7;" d="M270.96,433v48.51c-4.94,0.33-9.93,0.49-14.96,0.49c-5.05,0-10.07-0.17-15.04-0.5V433
	c0-8.28,6.71-15,15-15C264.24,418,270.96,424.72,270.96,433z"/>
<path style="fill:#A1A7B3;" d="M93.96,256c0,8.28-6.72,15-15,15H30.5c-0.33-4.96-0.5-9.96-0.5-15c0-5.04,0.17-10.04,0.5-15h48.46
	C87.24,241,93.96,247.72,93.96,256z"/>
<path style="fill:#979CA7;" d="M482,256c0,5.04-0.17,10.04-0.5,15h-48.54c-8.29,0-15-6.72-15-15s6.71-15,15-15h48.54
	C481.83,245.96,482,250.96,482,256z"/>
<g>
</g>
<g>
</g>
<g>
</g>
<g>
</g>
<g>
</g>
<g>
</g>
<g>
</g>
<g>
</g>
<g>
</g>
<g>
</g>
<g>
</g>
<g>
</g>
<g>
</g>
<g>
</g>
<g>
</g>
</svg>
